<svg width="161px" height="44px" viewBox="0 0 161 44" version="1.1" xmlns="http://www.w3.org/2000/svg" xmlns:xlink="http://www.w3.org/1999/xlink">
    <g  stroke="none" stroke-width="1" fill="none" fill-rule="evenodd">
        <g   transform="translate(-48.000000, -32.000000)" fill="#595757">
            <g   transform="translate(39.000000, 32.569871)">
                <g id="编组-23" transform="translate(9.469885, 0.000000)">
                    <path d="M27.244404,24.5215141 C26.8039645,24.5189882 26.4080098,24.2525312 26.2398023,23.845469 C26.0715948,23.4384069 26.1639556,22.9701666 26.4741366,22.6574669 C26.7944123,22.3751812 26.9699392,21.9632594 26.9517024,21.5367278 C26.9259386,21.1740208 26.7534919,20.8374717 26.4741366,20.6047041 C26.4196751,20.566368 26.3693382,20.5224846 26.3239344,20.4737587 L23.6279983,17.5698504 L16.2372821,10.1752828 C16.0331856,9.97081801 15.9182693,9.69391114 15.9176211,9.40501533 L15.9176211,1.09768082 C15.9176211,0.493602928 16.407323,0.00390103751 17.0114009,0.00390103751 C17.7174049,0.0132619933 18.3939629,0.288285574 18.9062588,0.774168493 L22.0489501,3.91685971 L34.3732293,16.2680984 C34.7961918,16.694515 34.7961918,17.3822167 34.3732293,17.8086333 L27.9877121,24.1941505 L27.9877121,24.1941505 C27.7920756,24.395974 27.5253687,24.5134356 27.244404,24.5215141 L27.244404,24.5215141 Z M27.8683207,18.9255211 C28.3061237,19.2808493 28.6477704,19.7403509 28.8619657,20.2619351 L32.085535,17.0383658 L20.5315232,5.46124596 L18.1359914,3.06571417 L18.1359914,8.95055753 L25.222452,16.0408695 L25.2532627,16.0716802 L27.8683207,18.9255211 Z" id="形状" fill-rule="nonzero"></path>
                    <path d="M25.9927194,43.0541491 C25.2158376,43.0542513 24.4748494,42.7270981 23.9515107,42.1529362 L23.7550925,41.9411127 L20.8473328,39.033353 L8.6231883,26.7899518 C8.19811557,26.3644064 8.19811557,25.6749623 8.6231883,25.2494169 L15.0125568,18.856197 L15.0125568,18.856197 C15.4471304,18.4937928 16.0863734,18.5226767 16.4864927,18.922796 C16.8866121,19.3229154 16.9154959,19.9621583 16.5530918,20.3967319 C16.2077957,20.6920541 16.010478,21.1247436 16.0139045,21.5790925 C16.0288126,21.8784364 16.1685079,22.1578271 16.3990383,22.3493599 C16.4500671,22.3875938 16.4977399,22.4301128 16.5415377,22.4764541 L19.2374738,25.388065 L26.7475815,32.8904701 C26.951678,33.0949348 27.0665943,33.3718417 27.0672425,33.6607375 L27.0672425,41.968072 C27.0672425,42.5706491 26.5798874,43.0597301 25.9773141,43.0618518 L25.9927194,43.0541491 Z M10.9416933,26.0196843 L22.3955704,37.4889668 L24.9104936,40.00389 L24.9104936,34.1074926 L17.7084929,26.9093433 L17.6776822,26.8823839 L15.0164082,24.0208403 C14.6299653,23.7028874 14.3227542,23.2994256 14.1190466,22.8423311 L10.9416933,26.0196843 Z" id="形状" fill-rule="nonzero"></path>
                    <path d="M26.0042734,34.7352627 C25.7153776,34.7346124 25.4384708,34.6196961 25.234006,34.4155996 L18.8369348,28.0223797 L18.8369348,28.0223797 C18.5186825,27.7569795 18.3777427,27.3345175 18.4728996,26.9311976 C18.5680564,26.5278777 18.8829677,26.2129665 19.2862876,26.1178096 C19.6896075,26.0226528 20.1120694,26.1635926 20.3774697,26.4818448 L20.3774697,26.4818448 C20.6425165,26.7771388 21.0168684,26.9510941 21.4134794,26.963262 C21.8079506,26.960806 22.1813075,26.7846942 22.4340838,26.4818448 C22.4748998,26.4282308 22.5199786,26.3780001 22.5688806,26.3316427 L25.4689376,23.6357066 L32.8596538,16.241139 C33.064355,16.0373968 33.3411093,15.9225438 33.6299212,15.921478 L41.9334044,15.921478 C42.5374823,15.921478 43.0271842,16.4111799 43.0271842,17.0152578 C43.0189622,17.7214918 42.7437761,18.3984497 42.2569167,18.9101157 L42.0335392,19.1334933 L39.1180769,22.052807 L26.7937976,34.4040456 C26.5860555,34.6164014 26.3013448,34.735841 26.0042734,34.7352627 L26.0042734,34.7352627 Z M22.7730015,28.8658226 L26.0042734,32.0932432 L37.5582853,20.5199747 L39.9538171,18.1205916 L34.0882304,18.1205916 L27.0017698,25.2070522 L26.9709591,25.2378629 L24.1171182,27.8721776 C23.7603299,28.31452 23.298151,28.6601609 22.7730015,28.8773766 L22.7730015,28.8658226 Z" id="形状" fill-rule="nonzero"></path>
                    <path d="M9.3973071,27.1136458 L1.09382393,27.1136458 C0.489746029,27.1136458 4.41383011e-05,26.6237622 4.41383011e-05,26.0196843 C0.00957215751,25.3125737 0.284503257,24.6348685 0.770311594,24.1209751 L3.91300281,20.9782839 L16.2565388,8.63089654 C16.4604014,8.42580996 16.7376342,8.31049007 17.0268062,8.31049007 C17.3159783,8.31049007 17.593211,8.42580996 17.7970737,8.63089654 L24.2557663,15.0934405 C24.6181705,15.5280141 24.5892866,16.167257 24.1891673,16.5673764 C23.7890479,16.9674957 23.149805,16.9963796 22.7152314,16.6339754 C22.4312283,16.319082 22.0299848,16.1351787 21.6060463,16.1255989 C21.2224397,16.1182196 20.8554496,16.2819537 20.6046986,16.572354 C20.5628569,16.6238963 20.517837,16.672775 20.4699018,16.7187048 L17.5698448,19.4146409 L10.1791286,26.8092085 C9.96863103,27.0094283 9.68777132,27.1187284 9.3973071,27.1136458 L9.3973071,27.1136458 Z M3.05800594,24.9259046 L8.9428493,24.9259046 L16.0293099,17.8355926 L16.0601206,17.8047819 L18.9139615,15.1704672 C19.2760555,14.7352056 19.7424282,14.3986753 20.2696322,14.1922276 L17.0268062,10.9494016 L5.47279441,22.5265214 L3.05800594,24.9259046 Z" id="形状" fill-rule="nonzero"></path>
                    <path d="M4.90664783,22.6228052 C4.76370253,22.6228052 4.62221308,22.5940985 4.4907034,22.5380754 C4.0814495,22.3698028 3.81390199,21.9715218 3.81286804,21.5290251 L3.81286804,13.2216906 C3.7986812,12.3988544 4.16542521,11.6156143 4.80651306,11.0996037 L14.8585034,1.0437621 C15.3825996,0.381287833 16.1820956,-0.00354945776 17.0268062,2.46775102e-05 C17.6308841,2.46775102e-05 18.120586,0.489751591 18.120586,1.09382949 L18.120586,9.40116399 C18.1199378,9.6900598 18.0050215,9.96696667 17.800925,10.1714315 L5.68076662,22.2992925 C5.47574808,22.5053855 5.19734659,22.6217324 4.90664783,22.6228052 Z M15.9330265,3.06571417 L6.35475065,12.6478413 C6.23414978,12.7562106 6.12450068,12.8761796 6.02738698,13.0060157 C6.00492635,13.0755742 5.99578019,13.1487435 6.00042762,13.2216906 L6.00042762,18.8870077 L15.9330265,8.95055753 L15.9330265,3.06571417 Z" id="形状" fill-rule="nonzero"></path>
                    <path d="M41.9372558,18.1321456 L33.6337726,18.1321456 C33.3449606,18.1310798 33.0682064,18.0162268 32.8635051,17.8124846 L20.7433467,5.68462352 C20.4343096,5.37093948 20.342649,4.90293359 20.5105204,4.49584536 C20.6783919,4.08875713 21.0732963,3.8213966 21.5136142,3.81672494 L29.8170973,3.81672494 C30.6405888,3.80347061 31.4239469,4.17169158 31.9391842,4.8142213 L41.9911745,14.8700629 C42.6526665,15.3945644 43.0361418,16.1941813 43.0310859,17.0383658 C43.0310859,17.3284543 42.9157984,17.6066614 42.7106749,17.8117849 C42.5055514,18.0169084 42.2273442,18.1321456 41.9372558,18.1321456 L41.9372558,18.1321456 Z M34.0882304,15.944586 L39.9692224,15.944586 L30.3909466,6.35860755 C30.2805661,6.24001848 30.160785,6.13054111 30.0327722,6.03124388 C29.9628285,6.01076851 29.8897913,6.00294309 29.8170973,6.00813585 L24.1556315,6.00813585 L34.0882304,15.944586 Z" id="形状" fill-rule="nonzero"></path>
                    <path d="M26.0042734,43.0541629 L26.0042734,43.0541629 L26.0042734,43.0541629 C25.4001955,43.0541629 24.9104881,42.5644472 24.9104881,41.9603693 L24.9104881,33.6530348 C24.9095364,33.3532179 25.0321261,33.0662465 25.2494113,32.8596594 L37.3503131,20.7549063 C37.6616469,20.4407849 38.1319366,20.3459416 38.5406819,20.5148447 C38.9494272,20.6837477 39.2155834,21.0829075 39.2143603,21.5251737 L39.2143603,29.8325083 C39.2271277,30.6530997 38.8622026,31.434068 38.2245666,31.9507438 L28.1725763,42.0065854 C27.6492553,42.6705041 26.8496407,43.0568188 26.0042734,43.0541629 Z M27.0980532,34.1074926 L27.0980532,39.992336 L36.676329,30.4102088 C36.7949181,30.2998284 36.9043955,30.1800473 37.0036927,30.0520345 C37.0238513,29.9820283 37.0316706,29.9090474 37.0268007,29.8363596 L37.0268007,24.1710425 L27.0980532,34.1074926 Z" id="形状" fill-rule="nonzero"></path>
                    <path d="M21.5136142,39.2374739 L13.210131,39.2374739 C12.3885135,39.2510486 11.6067022,38.8843081 11.0918955,38.2438289 L1.0399052,28.1879872 C0.37979411,27.6623843 -0.00333865824,26.8634815 2.19243561e-05,26.0196843 C2.19243561e-05,25.4156065 0.489746029,24.9259046 1.09382393,24.9259046 L9.3973071,24.9259046 C9.68595247,24.9277953 9.96240681,25.0425239 10.1675746,25.2455656 L22.2838816,37.3695753 C22.5967972,37.6819227 22.6908958,38.1519389 22.5223438,38.5606775 C22.3537918,38.9694162 21.9557409,39.2364841 21.5136142,39.2374739 L21.5136142,39.2374739 Z M3.05800594,27.1134641 L12.6401331,36.6955913 C12.749798,36.8160707 12.869632,36.9268848 12.9983075,37.0268063 C13.0673025,37.0453791 13.1387542,37.0531738 13.210131,37.0499143 L18.8754481,37.0499143 L8.9428493,27.1134641 L3.05800594,27.1134641 Z" id="形状" fill-rule="nonzero"></path>
                    <path d="M124.621616,38.3131529 L124.621616,36.6378212 C125.160803,36.6686319 125.52668,36.6801859 125.711544,36.6801859 C125.902221,36.6953026 126.091338,36.6359447 126.239177,36.5145784 C126.371061,36.3555152 126.433508,36.1501346 126.412488,35.9445805 L126.412488,24.4252307 L128.099373,24.4252307 L128.099373,36.5415378 C128.11132,36.8985346 128.048346,37.2540748 127.914509,37.5852502 C127.809249,37.8444069 127.603668,38.049988 127.344511,38.1552481 C126.959591,38.2806574 126.554884,38.3341831 126.150597,38.3131529 L124.621616,38.3131529 Z M124.621616,34.5234371 L125.079925,34.5234371 L125.079925,25.8502255 L124.621616,25.8502255 L124.621616,34.5234371 Z M152.116313,27.0788021 L147.27133,27.0788021 L147.27133,25.4612404 L158.705951,25.4612404 L158.705951,27.0788021 L154.030427,27.0788021 C153.984211,28.0377851 153.92259,29.0044707 153.83786,29.9750077 L159.757366,29.9750077 L159.757366,31.5887181 L154.261507,31.5887181 C155.451712,33.9581473 157.505716,35.7805587 160,36.6801859 L158.894666,38.4556524 C156.381039,37.3690008 154.369203,35.375042 153.26016,32.8712134 C152.438541,35.1820157 150.401184,37.0781575 147.148088,38.5596385 L145.919511,36.8573474 C147.371963,36.3061941 148.726806,35.5260538 149.932604,34.5465451 C150.810286,33.774584 151.421022,32.7445581 151.67726,31.6041234 L146.235321,31.6041234 L146.235321,29.9904131 L151.943002,29.9904131 C152.02388,29.2008889 152.081651,28.2380546 152.116313,27.0788021 L152.116313,27.0788021 Z M124.621616,25.8502255 L124.621616,34.5234371 L123.33912,34.5234371 L123.33912,27.7104214 L122.145206,29.0776461 C121.118183,28.2740004 120.118119,27.5306923 119.145014,26.8477219 C118.52787,27.7864303 117.827989,28.6680489 117.053738,29.4820366 L122.322367,29.4820366 L122.04122,32.9790508 C122.025983,33.4807344 121.819271,33.9575519 121.463519,34.3116135 C121.07707,34.6235139 120.588185,34.7800671 120.092443,34.750666 C119.50704,34.750666 119.044879,34.750666 118.705962,34.750666 L118.35549,33.0483749 C119.021771,33.0945909 119.418459,33.117699 119.549405,33.117699 C119.75287,33.1369213 119.95466,33.0668786 120.10246,32.9257301 C120.250259,32.7845816 120.329512,32.5862277 120.319672,32.3820935 L120.423658,31.1188549 L117.650695,31.1188549 L117.650695,35.8906618 C117.650695,36.1949174 117.816303,36.3451196 118.143666,36.3451196 L120.531496,36.3451196 C120.835322,36.3870742 121.144124,36.3187552 121.401898,36.1525527 C121.525141,36.0254586 121.656086,35.5440414 121.787032,34.7121526 L123.454661,35.3437719 C123.197905,36.627551 122.893649,37.3978184 122.541894,37.6545743 C122.191422,37.9049112 121.579059,38.039708 120.700954,38.039708 L118.266909,38.039708 C117.645184,38.081058 117.022454,37.9755105 116.449078,37.731601 C116.081917,37.5287639 115.898337,36.9061311 115.898337,35.8637024 L115.898337,30.6297351 C115.815636,30.6852308 115.739417,30.7498231 115.671108,30.8223019 L114.43868,29.4704825 C115.38027,28.6839979 116.252592,27.8181183 117.046035,26.8823839 C117.686289,26.084221 118.231696,25.2144129 118.6713,24.2904339 L120.250348,24.9952286 C120.22724,25.0414447 120.188727,25.1184714 120.130957,25.2224575 C120.073186,25.3264436 120.030822,25.4034704 120.007714,25.4496864 C121.070683,26.1275218 122.187571,26.8772488 123.358377,27.6988674 L123.358377,25.8733335 L124.621616,25.8502255 Z M124.621616,36.6339699 L124.167158,36.6070105 L124.51763,38.3093016 L124.621616,38.3093016 L124.621616,36.6339699 L124.621616,36.6339699 Z M92.4398415,37.5544395 L92.4398415,35.9599859 L94.8430759,35.9599859 L94.8430759,34.5195857 L92.4398415,34.5195857 L92.4398415,32.9366861 L96.5838804,32.9366861 L96.5838804,38.2245722 L94.8430759,38.2245722 L94.8430759,37.5544395 L92.4398415,37.5544395 Z M92.4398415,32.2357427 L92.4398415,30.6720998 L96.5838804,30.6720998 L96.5838804,32.2357427 L92.4398415,32.2357427 Z M92.4398415,29.9518997 L92.4398415,28.4113648 L96.5838804,28.4113648 L96.5838804,29.9518997 L92.4398415,29.9518997 Z M92.4398415,27.6873134 L92.4398415,24.5061088 L93.0175421,24.3867173 C93.1831496,24.7988104 93.4026758,25.364957 93.6491614,26.0890084 L97.1808377,26.0890084 L97.1808377,27.6873134 L92.4398415,27.6873134 Z M92.4398415,24.5061088 L92.4398415,27.6873134 L87.8991148,27.6873134 L87.8991148,26.0890084 L91.5771419,26.0890084 C91.4269398,25.6807667 91.2459269,25.2494169 91.0341034,24.7911078 L92.4398415,24.5061088 L92.4398415,24.5061088 Z M92.4398415,28.3921081 L92.4398415,29.932643 L88.1378977,29.932643 L88.1378977,28.3921081 L92.4398415,28.3921081 Z M92.4398415,30.6720998 L92.4398415,32.2357427 L88.2033705,32.2357427 L88.2033705,30.6720998 L92.4398415,30.6720998 Z M92.4398415,32.9366861 L92.4398415,34.5195857 L90.0327557,34.5195857 L90.0327557,35.9599859 L92.4398415,35.9599859 L92.4398415,37.5544395 L90.0327557,37.5544395 L90.0327557,38.2746396 L88.2958026,38.2746396 L88.2958026,32.9366861 L92.4398415,32.9366861 Z M87.8991148,25.4073217 C87.9491822,25.2455656 87.9915469,25.0876607 88.0300603,24.9336072 L87.8991148,24.8989452 L87.8991148,25.4073217 Z M87.8991148,24.8989452 L87.8991148,25.4073217 C87.598709,26.4029989 87.2438517,27.3814279 86.8361457,28.3381894 L86.8361457,38.4325444 L85.0452739,38.4325444 L85.0452739,31.7081095 C84.8257477,32.0354732 84.5831134,32.3820935 84.3250738,32.7441192 L82.888525,31.5502047 C84.4431298,29.4389241 85.5648476,27.0410395 86.1891211,24.4945548 L87.8991148,24.8796885 L87.8991148,24.8989452 Z M87.8991148,26.0890084 L87.7681694,26.0890084 L87.7681694,27.6873134 L87.8991148,27.6873134 L87.8991148,26.0890084 Z M61.8255615,36.4876191 L61.8255615,34.8353954 L63.0464354,34.8353954 L63.0464354,27.8298129 L61.8255615,27.8298129 L61.8255615,26.1621838 L64.8026452,26.1621838 L64.8026452,37.8163304 L63.0464354,37.8163304 L63.0464354,36.4991731 L61.8255615,36.4876191 Z M54.4425479,27.1288695 C53.4720109,27.2213016 52.7325541,27.2752203 52.2318803,27.2867743 L51.9507327,25.5998886 C53.9839593,25.5196485 56.0086716,25.2918201 58.0088862,24.9182019 L58.3940199,26.5665742 C57.7739546,26.7090737 57.0383492,26.8284652 56.1833523,26.951708 L56.1833523,28.6732557 L58.5172627,28.6732557 L58.5172627,30.252304 L56.1833523,30.252304 L56.1833523,31.7427715 L56.7995663,31.165071 C57.1847,31.5502047 57.8625354,32.2781074 58.7984104,33.3064145 L57.5544284,34.3770862 C56.9459171,33.6530348 56.4888918,33.1266854 56.1833523,32.798038 L56.1833523,38.4518011 L54.4618046,38.4518011 L54.4618046,33.3949952 C53.9815987,34.2987738 53.3860828,35.13638 52.6901894,35.8868105 L51.4616128,34.6428285 C52.6756465,33.3732794 53.6352338,31.8829123 54.2884944,30.252304 L51.7774225,30.252304 L51.7774225,28.6732557 L54.4733586,28.6732557 L54.4733586,27.1327208 L54.4425479,27.1288695 Z M61.8255615,26.1621838 L61.8255615,27.8298129 L60.6046875,27.8298129 L60.6046875,34.8353954 L61.8255615,34.8353954 L61.8255615,36.4876191 L60.6046875,36.4876191 L60.6046875,37.8933572 L58.8138157,37.8933572 L58.8138157,26.1621838 L61.8255615,26.1621838 Z" id="形状" fill-rule="nonzero"></path>
                    <path d="M103.485477,12.0470327 L103.485477,10.1213641 C103.566265,9.25749064 103.960881,8.45318749 104.594662,7.86062908 C105.364929,7.17509105 106.607628,6.83360581 108.322756,6.836159 L116.025431,6.836159 L116.025431,9.31643457 L108.750255,9.31643457 C108.14585,9.2658321 107.542039,9.42051625 107.03641,9.75548702 C106.646237,10.1059399 106.443657,10.6195238 106.48952,11.1419684 C106.451447,11.5794205 106.624608,12.0087461 106.955532,12.2973696 C107.358244,12.5812684 107.846671,12.7173206 108.338162,12.6825034 L112.228012,12.6825034 C113.837871,12.6825034 114.983002,12.9854752 115.663405,13.591419 C116.343808,14.1973627 116.68401,15.2115482 116.68401,16.6339754 C116.68401,18.0705242 116.298876,19.129642 115.528608,19.803626 C114.758341,20.47761 113.506656,20.8165277 111.819771,20.8165277 L103.978448,20.8165277 L103.978448,18.3247125 L111.334502,18.3247125 C111.946698,18.3755683 112.560552,18.2485177 113.102266,17.9588354 C113.465207,17.667288 113.657606,17.2130537 113.614494,16.7495155 C113.660587,16.2831166 113.486899,15.8218462 113.144631,15.5016822 C112.661195,15.205389 112.096058,15.0705116 111.53092,15.1165485 L108.064717,15.1165485 C106.454858,15.1165485 105.2802,14.7968875 104.533041,14.1537142 C103.940915,13.6042054 103.568629,12.8582637 103.485477,12.0547354 L103.485477,12.0470327 Z M103.485477,6.92090279 L103.55095,6.82461936 L103.485477,6.82461936 L103.485477,6.92090279 Z M121.941085,9.27406986 L117.423466,9.27406986 L117.423466,6.84387604 L129.512814,6.84387604 L129.512814,9.27406986 L124.983641,9.27406986 L124.983641,20.7934197 L121.941085,20.7934197 L121.941085,9.27406986 L121.941085,9.27406986 Z M136.691707,9.25481318 C135.632589,9.25481318 134.82766,9.52055545 134.284621,10.05204 C133.741582,10.5835245 133.445029,11.400008 133.391111,12.4976392 L141.513581,12.4976392 L141.513581,14.9316843 L133.371854,14.9316843 C133.371854,16.1487069 133.62861,17.0229605 134.142122,17.554445 C134.650498,18.0859296 135.501644,18.3516718 136.687855,18.3516718 L141.50973,18.3516718 L141.50973,20.785717 L136.549207,20.785717 C135.68043,20.8120375 134.81216,20.7187309 133.968811,20.5084207 C133.324474,20.3111616 132.725158,19.9892583 132.204899,19.5609917 C131.476433,18.976153 130.918994,18.2058491 130.591189,17.3310674 C130.210523,16.280022 130.028981,15.1672614 130.055853,14.0497281 C130.055853,11.5771696 130.591189,9.75291947 131.66186,8.57697782 C132.732532,7.40103617 134.391175,6.81434912 136.637788,6.81690829 L141.513581,6.81690829 L141.513581,9.2471105 L136.691707,9.25481318 Z M144.090126,6.82461936 L148.403623,6.82461936 L151.969962,17.542891 L155.532449,6.82461936 L159.830541,6.82461936 L159.830541,20.7934197 L156.949741,20.7934197 L157.184672,9.90954052 L153.602929,20.7934197 L150.487197,20.7934197 L146.789913,9.79785173 L147.086466,20.7934197 L144.090126,20.7934197 L144.090126,6.82461936 Z M103.485477,6.82461936 L103.485477,6.92090279 L98.155226,14.6235773 L98.155226,20.785717 L95.220507,20.785717 L95.220507,14.6235773 L89.9056615,6.85157872 L89.9056615,6.82461936 L93.1947036,6.82461936 L96.6609071,12.1548701 L100.157921,6.82461936 L103.485477,6.82461936 Z M103.485477,10.1098101 C103.441171,10.4378686 103.419296,10.7685676 103.420004,11.0996037 C103.419107,11.416574 103.440987,11.733199 103.485477,12.0470327 L103.485477,10.1213641 L103.485477,10.1098101 Z M89.9056615,17.1500546 C89.9056615,16.9767444 89.9056615,16.7957316 89.9056615,16.6108674 C89.9056615,16.4260032 89.9056615,16.2257337 89.9056615,16.0485721 L89.9056615,17.1500546 Z M63.4700825,6.82461936 L63.5355552,6.82461936 L63.4700825,6.98252418 L63.4700825,6.82461936 Z M89.9056615,16.0678288 C89.8247835,14.939387 89.4897171,14.1152008 88.9043139,13.5875676 C88.2239109,12.9816239 87.07878,12.678652 85.468921,12.678652 L81.5790704,12.678652 C81.0875796,12.7134692 80.5991522,12.577417 80.1964403,12.2935183 C79.8640899,12.0056651 79.6894506,11.5762243 79.7265771,11.1381171 C79.6804331,10.6148476 79.8846966,10.1006177 80.2773184,9.75163569 C80.7829474,9.41666491 81.3867583,9.26198077 81.9911634,9.31258324 L89.2509342,9.31258324 L89.2509342,6.82461936 L81.5482597,6.82461936 C79.8408335,6.82461936 78.5968515,7.16610459 77.8163138,7.84907507 C77.0460464,8.53076177 76.6609126,9.61683888 76.6609126,11.0996037 C76.6609126,12.4860852 77.0319248,13.5015544 77.7739491,14.1460115 C78.5211086,14.7891848 79.6996178,15.1088458 81.3056254,15.1088458 L84.771829,15.1088458 C85.3357868,15.0622879 85.8998602,15.1972337 86.3816879,15.4939796 C86.725485,15.8131191 86.8994693,16.2751757 86.8515511,16.7418128 C86.8960904,17.2055714 86.7034158,17.6604571 86.3393232,17.9511328 C85.9965542,18.193767 85.4111509,18.3170098 84.5715594,18.3170098 L77.2155052,18.3170098 L77.2155052,20.808825 L85.0375712,20.808825 C86.724457,20.808825 87.9594524,20.4711911 88.7425577,19.7959233 C89.4280957,19.21052 89.8132295,18.3336989 89.8979589,17.1654599 L89.8979589,16.0639775 L89.9056615,16.0678288 Z M63.4700825,15.3553314 C63.5367962,16.040465 63.6934816,16.7138236 63.9360943,17.3580268 C64.2667311,18.2312859 64.8236701,19.0008984 65.5498046,19.5879511 C66.070564,20.0154713 66.6697257,20.3372918 67.3137171,20.5353801 C68.1584233,20.7454172 69.0279264,20.8387171 69.8979644,20.8126763 L74.8623381,20.8126763 L74.8623381,18.3786312 L70.0404639,18.3786312 C68.8504007,18.3786312 68.0031064,18.1128889 67.4908786,17.5814044 C66.9786507,17.0499198 66.7206111,16.1756663 66.7206111,14.9586437 L74.8623381,14.9586437 L74.8623381,12.5245985 L66.7360165,12.5245985 C66.7937865,11.4269674 67.0941909,10.5989299 67.6333781,10.0789994 C68.1725653,9.55906882 68.9774948,9.28177254 70.0404639,9.28177254 L74.8623381,9.28177254 L74.8623381,6.85157872 L69.9826938,6.85157872 C67.7360804,6.85157872 66.0774378,7.43826576 65.006766,8.61163985 C64.1543367,9.54623103 63.6408251,10.8941991 63.4662311,12.655544 L63.4700825,15.3553314 Z M54.6582228,20.8126763 L48.5577045,6.82461936 L51.8929626,6.82461936 L56.0947716,17.22323 L60.3967153,6.82461936 L63.4777851,6.82461936 L63.4777851,6.98252418 L57.7007792,20.7934197 L54.6582228,20.8126763 Z M63.4700825,12.6478413 C63.4225184,13.1226217 63.3993799,13.5995325 63.4007584,14.0766874 C63.3996455,14.5038707 63.4227908,14.9307725 63.4700825,15.3553314 L63.4700825,12.6478413 Z" id="形状"></path>
                </g>
            </g>
        </g>
    </g>
</svg>
